<?xml version="1.0" encoding="UTF-8"?>
<svg id="Layer_1" data-name="Layer 1" xmlns="http://www.w3.org/2000/svg" xmlns:xlink="http://www.w3.org/1999/xlink" viewBox="0 0 942.46 840">
  <defs>
    <style>
      .cls-1, .cls-2 {
        fill: #fff;
      }

      .cls-2 {
        fill-rule: evenodd;
      }

      .cls-3 {
        clip-rule: evenodd;
      }

      .cls-3, .cls-4 {
        fill: none;
      }

      .cls-4 {
        clip-path: url(#clippath);
      }
    </style>
    <clipPath id="clippath">
      <polygon class="cls-3" points="110.14 251.06 145.4 251.06 127.56 215.05 110.14 251.06"/>
    </clipPath>
  </defs>
  <g>
    <path class="cls-1" d="m0,216.12h14.66c3.19,0,5.58.94,7.17,2.84,1.59,1.89,2.39,4.59,2.39,8.08s-.86,6.4-2.6,8.42c-1.73,2.02-4.38,3.03-7.93,3.03h-4.82v13.2H0v-35.57h0Zm8.86,15.16h2.16c1.7,0,2.89-.36,3.58-1.1.68-.74,1.03-1.68,1.03-2.82s-.3-2.07-.9-2.84c-.59-.78-1.71-1.17-3.36-1.17h-2.51v7.93h0Zm20.32-15.16h8.84v35.57h-8.84v-35.57h0Zm15.22,0h8.24l10.74,19.68v-19.68h8.31v35.57h-8.31l-10.69-19.53v19.53h-8.29v-35.57h0Zm33.21,0h8.24l10.74,19.68v-19.68h8.31v35.57h-8.31l-10.69-19.53v19.53h-8.29v-35.57h0Zm92.04,21.04l7.73,2.92c-.52,2.7-1.34,4.95-2.45,6.77-1.12,1.81-2.51,3.18-4.16,4.1-1.65.93-3.76,1.38-6.31,1.38-3.1,0-5.64-.56-7.6-1.68-1.97-1.13-3.67-3.11-5.1-5.94-1.42-2.83-2.14-6.45-2.14-10.87,0-5.89,1.26-10.42,3.77-13.57,2.51-3.16,6.07-4.75,10.66-4.75,3.59,0,6.42.9,8.48,2.72,2.06,1.81,3.59,4.6,4.58,8.35l-7.79,2.16c-.27-1.08-.56-1.88-.86-2.39-.49-.84-1.1-1.48-1.81-1.94-.72-.46-1.51-.68-2.4-.68-1.99,0-3.53,1-4.59,3.01-.8,1.49-1.21,3.83-1.21,7.02,0,3.95.49,6.65,1.44,8.12.96,1.47,2.31,2.19,4.05,2.19s2.96-.59,3.83-1.77c.86-1.18,1.49-2.89,1.88-5.14h0Zm12.01-21.04h8.82v26.81h13.76v8.76h-22.59v-35.57h0Zm26.58,0h23.63v7.59h-14.79v5.66h13.72v7.26h-13.72v7.01h15.22v8.06h-24.06v-35.57Z"/>
    <polygon class="cls-2" points="110.14 251.06 145.4 251.06 127.56 215.05 110.14 251.06"/>
    <g class="cls-4">
      <g>
        <rect class="cls-1" x="111.65" y="225.61" width="32.24" height=".81"/>
        <rect class="cls-1" x="111.65" y="227.88" width="32.24" height=".81"/>
        <rect class="cls-1" x="111.65" y="229.82" width="32.24" height=".81"/>
        <rect class="cls-1" x="111.65" y="231.73" width="32.24" height=".81"/>
        <rect class="cls-1" x="111.65" y="234.44" width="32.24" height=".81"/>
        <rect class="cls-1" x="111.65" y="236.76" width="32.24" height=".81"/>
        <rect class="cls-1" x="111.65" y="239.06" width="32.24" height=".81"/>
        <rect class="cls-1" x="111.65" y="240.99" width="32.24" height=".81"/>
        <rect class="cls-1" x="111.65" y="242.53" width="32.24" height=".81"/>
      </g>
    </g>
  </g>
  <rect class="cls-1" x="348.78" width="593.68" height="840"/>
</svg>