<svg id="burst-new" xmlns="http://www.w3.org/2000/svg" width="37.015" height="36.732" viewBox="0 0 37.015 36.732">
  <path id="Path_78" data-name="Path 78" d="M42.508,23.981a1.28,1.28,0,0,0-.527-1.032l.007-.012-4.476-2.584,2.576-4.462-.009-.005A1.275,1.275,0,0,0,39.047,14.1v-.012H33.878V8.933h-.011A1.275,1.275,0,0,0,32.079,7.9l-.006-.011-4.551,2.628L25,6.154l-.009.005a1.276,1.276,0,0,0-2.064,0l-.012-.007-2.562,4.437L15.945,8.044l-.005.009a1.276,1.276,0,0,0-1.787,1.033h-.013v5.124H9.046v.01a1.276,1.276,0,0,0-1.031,1.788L8,16.014l2.518,4.362-4.509,2.6.005.009a1.276,1.276,0,0,0,0,2.064l-.007.012,4.476,2.584L7.912,32.11l.009,0A1.275,1.275,0,0,0,8.953,33.9v.013h5.168v5.153h.011A1.275,1.275,0,0,0,15.921,40.1l.006.011,4.551-2.628L23,41.846l.009-.005a1.276,1.276,0,0,0,2.064,0l.011.006,2.562-4.437,4.412,2.547.005-.009a1.276,1.276,0,0,0,1.787-1.033h.013V33.791h5.094v-.01a1.276,1.276,0,0,0,1.031-1.788L40,31.987l-2.518-4.362,4.509-2.6-.005-.009a1.28,1.28,0,0,0,.525-1.032ZM20.983,29.45l-4.726-2.088,2.086,3.612-1.179.681-3.2-5.538,1.212-.7,4.574,2-2.009-3.479,1.179-.681,3.2,5.538-1.137.658Zm2.233-1.289-3.2-5.538,3.919-2.262.6,1.038L21.8,22.98l.671,1.163,2.682-1.548.6,1.037L23.067,25.18l.729,1.262,2.74-1.582.6,1.038-3.919,2.263Zm9.075-5.239L29.124,19.68l1.232,4.358-1.253.724L24.32,20.14l1.32-.762,3.282,3.441-1.256-4.61.922-.532,3.357,3.4L30.6,16.512l1.32-.762,1.62,6.449-1.254.723Z" transform="translate(-5.493 -5.634)" fill="red"/>
</svg>
